<?xml version="1.0" encoding="UTF-8" standalone="no"?>
<svg
   width="396"
   height="300.83701"
   viewBox="0 0 350 265.8913"
   class="css-1j8o68f"
   version="1.1"
   id="svg1328"
   sodipodi:docname="logo.svg"
   inkscape:export-filename="logo.png"
   inkscape:export-xdpi="300"
   inkscape:export-ydpi="300"
   inkscape:version="1.2.2 (b0a8486541, 2022-12-01)"
   xmlns:inkscape="http://www.inkscape.org/namespaces/inkscape"
   xmlns:sodipodi="http://sodipodi.sourceforge.net/DTD/sodipodi-0.dtd"
   xmlns:xlink="http://www.w3.org/1999/xlink"
   xmlns="http://www.w3.org/2000/svg"
   xmlns:svg="http://www.w3.org/2000/svg">
  <sodipodi:namedview
     id="namedview1330"
     pagecolor="#ffffff"
     bordercolor="#666666"
     borderopacity="1.0"
     inkscape:showpageshadow="2"
     inkscape:pageopacity="0.0"
     inkscape:pagecheckerboard="0"
     inkscape:deskcolor="#d1d1d1"
     showgrid="false"
     inkscape:zoom="0.6824495"
     inkscape:cx="213.93524"
     inkscape:cy="15.385754"
     inkscape:window-width="857"
     inkscape:window-height="717"
     inkscape:window-x="2445"
     inkscape:window-y="122"
     inkscape:window-maximized="1"
     inkscape:current-layer="svg1328" />
  <defs
     id="SvgjsDefs4200">
    <linearGradient
       id="SvgjsLinearGradient1461">
      <stop
         id="SvgjsStop1462"
         stop-color="#7d141d"
         offset="0" />
      <stop
         id="SvgjsStop1463"
         stop-color="#ff1e27"
         offset="1" />
    </linearGradient>
    <linearGradient
       inkscape:collect="always"
       xlink:href="#SvgjsLinearGradient1461"
       id="linearGradient3199"
       gradientTransform="scale(3.1196929,0.32054437)"
       x1="0.12821776"
       y1="14.475375"
       x2="49.107395"
       y2="14.475375"
       gradientUnits="userSpaceOnUse" />
    <linearGradient
       inkscape:collect="always"
       xlink:href="#SvgjsLinearGradient1461"
       id="linearGradient3238"
       gradientUnits="userSpaceOnUse"
       gradientTransform="scale(3.1196929,0.32054437)"
       x1="0.12821776"
       y1="14.475375"
       x2="49.107395"
       y2="14.475375" />
  </defs>
  <g
     id="SvgjsG4201"
     featurekey="symbolFeature-0"
     transform="matrix(45.636604,0,0,45.636604,60.877282,-57.548038)"
     fill="#856da6">
    <title
       id="title1317">abstract</title>
    <path
       d="m 2.52319,1.8683375 c 0.07051,-0.04584 0.13985,-0.0936 0.21175,-0.13714 0.17382,-0.10525 0.34885,-0.20849 0.52332,-0.31267 a 0.223,0.223 0 0 0 0.03638,-0.02418 0.13382,0.13382 0 0 1 0.16664,-0.01366 0.10627,0.10627 0 0 1 0.03981,0.16023 0.0712,0.0712 0 0 0 -0.00889,0.054 0.11864,0.11864 0 0 1 -0.03957,0.14543 c -0.07111,0.05572 -0.14493,0.108 -0.21772,0.16152 -0.02725,0.02 -0.05487,0.0396 -0.08232,0.05938 l 0.00721,0.01009 c 0.077,-0.04651 0.15368,-0.09365 0.23122,-0.13928 0.04408,-0.02593 0.0896,-0.0494 0.1345,-0.07393 l 0.01572,-0.00779 a 0.129,0.129 0 0 1 0.16657,0.03071 0.11877,0.11877 0 0 1 -0.04344,0.162 c -0.11259,0.08856 -0.23349,0.16673 -0.34445,0.25717 -0.28337,0.231 -0.56319,0.46627 -0.84431,0.7 a 0.04571,0.04571 0 0 0 -0.01669,0.02761 c 0.03146,-0.0214 0.06322,-0.04234 0.09432,-0.06426 a 6.888,6.888 0 0 1 0.76315,-0.49155 1.708,1.708 0 0 1 0.25407,-0.106 0.12576,0.12576 0 0 1 0.15821,0.05078 0.13612,0.13612 0 0 1 -0.0251,0.16593 c -0.03636,0.03933 -0.08216,0.06981 -0.12244,0.10571 -0.012,0.01073 -0.02941,0.02791 -0.02767,0.03968 A 0.17843,0.17843 0 0 1 3.459,2.7994375 c -0.18418,0.14192 -0.37061,0.28094 -0.556,0.42131 -0.01705,0.01291 -0.03275,0.02761 -0.04908,0.04148 l 0.00545,0.00934 c 0.04356,-0.01813 0.08842,-0.03369 0.13046,-0.05484 0.15407,-0.07753 0.30646,-0.15841 0.4611,-0.23478 a 0.92889,0.92889 0 0 1 0.16748,-0.063 0.10385,0.10385 0 0 1 0.12688,0.05283 0.106,0.106 0 0 1 -0.04127,0.13476 c -0.04029,0.03047 -0.08384,0.05663 -0.12595,0.0847 l 0.00677,0.0124 c 0.06232,-0.03049 0.12454,-0.06122 0.187,-0.09138 0.03158,-0.01524 0.063,-0.03128 0.09564,-0.04376 a 0.10758,0.10758 0 0 1 0.11392,0.18233 c -0.07115,0.05832 -0.14634,0.11187 -0.22139,0.16524 -0.10609,0.07544 -0.21368,0.14875 -0.32044,0.22323 a 0.08439,0.08439 0 0 0 -0.03258,0.0386 c 0.0647,-0.02342 0.13006,-0.04517 0.19392,-0.0707 0.072,-0.02877 0.14224,-0.0618 0.214,-0.0911 a 0.28411,0.28411 0 0 1 0.07186,-0.01789 0.0874,0.0874 0 0 1 0.09358,0.0435 0.09062,0.09062 0 0 1 -0.01082,0.10284 l -0.02325,0.03207 c 0.01634,0.00593 0.02975,0.01014 0.04263,0.01561 a 0.0693,0.0693 0 0 1 0.04518,0.073 0.065,0.065 0 0 1 -0.05632,0.06889 0.69207,0.69207 0 0 0 -0.24954,0.10148 c -0.23219,0.11428 -0.46285,0.23169 -0.69482,0.34645 a 1.31235,1.31235 0 0 1 -0.13439,0.05356 0.12389,0.12389 0 0 1 -0.15289,-0.04227 c -0.018,-0.023 -0.0328,-0.02082 -0.056,-0.01207 -0.11622,0.04389 -0.23235,0.08825 -0.35013,0.12762 a 0.26071,0.26071 0 0 1 -0.10368,0.00482 0.1082,0.1082 0 0 1 -0.09719,-0.07737 0.113,0.113 0 0 1 0.02939,-0.12126 0.43336,0.43336 0 0 0 0.06275,-0.06884 0.73682,0.73682 0 0 1 -0.08348,0.03129 0.52516,0.52516 0 0 1 -0.13173,0.02389 0.113,0.113 0 0 1 -0.09638,-0.1783 l 0.01147,-0.02288 c -0.01768,0 -0.031,-0.00109 -0.04407,1.9e-4 a 0.14331,0.14331 0 0 1 -0.15078,-0.05749 0.04123,0.04123 0 0 0 -0.03946,-0.005 c -0.07614,0.04622 -0.14878,0.09846 -0.22638,0.14191 a 1.20816,1.20816 0 0 1 -0.20169,0.09153 0.12521,0.12521 0 0 1 -0.14589,-0.05443 0.09926,0.09926 0 0 0 -0.052,-0.03289 0.12266,0.12266 0 0 1 -0.07767,-0.19724 2.19992,2.19992 0 0 1 0.18229,-0.18905 q 0.1752,-0.17542 0.35142,-0.34983 a 0.06507,0.06507 0 0 0 0.02031,-0.037 0.53773,0.53773 0 0 1 -0.056,0.02489 0.55694,0.55694 0 0 1 -0.11713,0.03228 0.11433,0.11433 0 0 1 -0.12927,-0.14008 c 0.0045,-0.02827 -0.00522,-0.0386 -0.02811,-0.04955 A 0.12588,0.12588 0 0 1 1.145,3.0086075 0.26451,0.26451 0 0 1 1.24855,2.8763375 c 0.04307,-0.03186 0.08495,-0.06533 0.12656,-0.09748 a 0.1515,0.1515 0 0 1 0.03,-0.2243 c 0.09379,-0.09592 0.17793,-0.20194 0.27664,-0.29223 0.13575,-0.12418 0.2799,-0.23937 0.42287,-0.35542 a 3.78,3.78 0 0 1 0.70683,-0.46357 0.763,0.763 0 0 1 0.08013,-0.03543 0.06585,0.06585 0 0 1 0.08147,0.02512 0.06318,0.06318 0 0 1 -0.00743,0.08093 0.20419,0.20419 0 0 1 -0.04266,0.03728 q -0.18786,0.14075 -0.37606,0.281 c -0.01089,0.00816 -0.02049,0.018 -0.03069,0.02713 z"
       id="path1319" />
  </g>
  <g
     id="SvgjsG4202"
     featurekey="nameFeature-0"
     transform="matrix(1.1981051,0,0,1.1981051,-5.2716626,140.70012)"
     fill="#7d60a6">
    <path
       d="m 85.17248,15.805161 h 2.5344 q 2.112,0 2.112,-2.0352 0,-1.056 -0.528,-1.5264 -0.528,-0.4704 -1.584,-0.4704 h -5.2608 v 4.608 q 0.5952,-0.3456 1.344,-0.48 0.5568,-0.096 1.3824,-0.096 z m -2.7264,8.1984 h -2.0928 V 9.6803613 h 7.3536 q 1.2672,0 2.208,0.4895997 0.9408,0.4896 1.4592,1.4112 0.5184,0.9216 0.5184,2.1792 0,1.2576 -0.5184,2.1984 -0.5184,0.9408 -1.4688,1.4496 -0.9504,0.5088 -2.1984,0.5088 h -2.5344 q -1.6512,0 -2.7264,0.576 z m 17.73408,-8.0256 q 1.2864,-1.344 2.3232,-2.9952 1.0368,-1.6512 1.6512,-3.3023997 h 2.4 q -0.9792,2.2847997 -2.3808,4.3775997 -1.2672,1.9008 -2.9568,3.744 v 6.2016 h -2.0736 v -6.2016 q -1.6896,-1.8432 -2.9568,-3.744 -1.4016,-2.0928 -2.3808,-4.3775997 h 2.4 q 0.6144,1.6511997 1.6512,3.3023997 1.0368,1.6512 2.3232,2.9952 z m 20.09568,-4.1856 h -5.0496 v 12.2112 h -2.0352 v -12.2112 h -5.1072 V 9.6803613 h 12.192 z m 5.23488,5.8752 v 6.336 h -2.0736 V 9.6803613 h 2.0736 v 5.8751997 q 0.768,-0.384 1.824,-0.384 0.384,0 1.8624,0.1728 2.0736,0.2496 2.8032,0.2496 1.1136,0 1.9392,-0.3648 V 9.6803613 h 2.0928 V 24.003561 h -2.0928 v -6.6624 q -0.8256,0.3648 -1.9392,0.3648 -0.7296,0 -2.8032,-0.2496 -1.4784,-0.1728 -1.8624,-0.1728 -1.056,0 -1.824,0.384 z m 27.60288,-0.9216 q 0,-1.536 -0.7872,-2.784 -0.7488,-1.2096 -2.0448,-1.9008 -1.296,-0.6912 -2.8128,-0.6912 -1.5744,0 -2.8704,0.7104 -1.296,0.7104 -2.0256,1.9392 -0.7488,1.2864 -0.7488,2.8608 0,1.4976 0.8064,2.7648 0.768,1.1904 2.064,1.8912 1.296,0.7008 2.8032,0.7008 1.5072,0 2.8032,-0.7296 1.296,-0.7296 2.0448,-1.9584 0.768,-1.2864 0.768,-2.8032 z m 2.0736,0.1152 q 0,2.0736 -1.0752,3.8208 -1.0368,1.6704 -2.8128,2.6592 -1.776,0.9888 -3.8304,0.9888 -2.1312,0 -3.9168,-1.0368 -1.7472,-0.9984 -2.7456,-2.7456 -1.0368,-1.7856 -1.0368,-3.9168 0,-2.0544 1.0944,-3.7824 1.0368,-1.6512 2.8128,-2.6208 1.776,-0.9695997 3.8112,-0.9695997 2.0928,0 3.8784,1.0175997 1.7472,0.9984 2.7648,2.7072 1.056,1.7856 1.056,3.8784 z m 4.15968,-5.1648 -1.6704,-2.0159997 h 2.7072 l 9.1968,10.9439997 V 9.6803613 h 2.112 V 24.003561 h -2.0736 l -8.2176,-9.8496 v 9.8496 h -2.0544 z m 19.13568,6.5664 v 3.648 h 8.832 v 2.0928 h -10.9248 V 9.6803613 h 10.08 v 2.1119997 h -7.9872 v 4.3392 q 0.5952,-0.3456 1.3248,-0.4608 0.5376,-0.096 1.3824,-0.096 h 3.1296 v 2.1312 h -3.1296 q -0.7872,0 -1.3824,0.096 -0.7296,0.1344 -1.3248,0.4608 z m 15.52608,-6.4704 v 10.1184 h 3.2448 q 1.344,0 2.4192,-0.6912 1.0176,-0.672 1.5936,-1.8048 0.576,-1.1328 0.576,-2.4768 0,-1.4016 -0.5472,-2.5728 -0.5472,-1.1712 -1.5648,-1.8624 -1.0944,-0.7104 -2.5152,-0.7104 z m -3.1872,0 -0.9216,-2.1119997 h 7.296 q 1.9008,0 3.4752,0.9791997 1.5168,0.9408 2.4,2.5728 0.8832,1.632 0.8832,3.552 0,1.44 -0.5664,2.8512 -0.5664,1.4112 -1.5648,2.4672 -0.96,1.0368 -2.0544,1.4784 -1.056,0.4224 -2.5152,0.4224 h -5.2992 v -12.2112 z m 21.34368,-0.5952 -0.7872,-1.7663997 h 2.304 l 6.8928,14.5727997 h -2.3424 l -0.9408,-2.0928 h -4.3584 q -1.2288,0 -2.208,0.2304 -0.864,0.2112 -1.44,0.5568 -0.5184,0.3072 -0.6912,0.6336 l -0.3648,0.672 h -2.2656 z m 1.536,8.6016 h 2.6496 l -3.1296,-6.048 -3.168,6.8544 q 0.4224,-0.3648 1.2864,-0.576 0.9792,-0.2304 2.3616,-0.2304 z"
       id="path1322"
       style="stroke-width:0.48" />
  </g>
  <g
     id="SvgjsG4819"
     featurekey="sloganFeature-0"
     transform="matrix(0.88825456,0,0,0.88825456,62.111731,177.61355)"
     fill="#7fa4cf">
    <path
       d="m 13.8,15.46 q 0,1.46 -0.88,2.6 -0.86,1.08 -2.37,1.68 -1.51,0.6 -3.41,0.6 -1.74,0 -3.38,-0.81 Q 2.12,18.72 1,17.28 l 1.56,-1.46 q 1.94,2.34 4.58,2.34 1.16,0 2.12,-0.28 1.06,-0.32 1.64,-0.9 0.66,-0.64 0.66,-1.52 0,-1.06 -0.66,-1.6 Q 10.34,13.4 9.24,13.26 8.6,13.18 7.14,13.18 4.46,13.18 3.05,12.2 1.64,11.22 1.64,9.32 1.64,8.12 2.35,7.04 3.06,5.96 4.3,5.32 5.58,4.64 7.14,4.64 8.9,4.64 10.32,5.18 11.84,5.76 13.14,7 L 11.78,8.6 Q 10.56,7.62 9.56,7.23 8.56,6.84 7.14,6.84 6.32,6.84 5.61,7.18 4.9,7.52 4.48,8.09 4.06,8.66 4.06,9.3 q 0,1.72 3.18,1.72 2.54,0 4.02,0.52 1.4,0.5 2,1.52 0.54,0.9 0.54,2.4 z M 19.16,13.4 V 20 H 17 V 5.08 h 2.16 v 6.12 q 0.8,-0.4 1.9,-0.4 0.4,0 1.94,0.18 2.16,0.26 2.92,0.26 1.16,0 2.02,-0.38 V 5.08 h 2.18 V 20 h -2.18 v -6.94 q -0.86,0.38 -2.02,0.38 -0.76,0 -2.92,-0.26 Q 21.46,13 21.06,13 q -1.1,0 -1.9,0.4 z M 39.18,6.66 38.36,4.82 h 2.4 L 47.94,20 H 45.5 l -0.98,-2.18 h -4.54 q -1.28,0 -2.3,0.24 -0.9,0.22 -1.5,0.58 -0.54,0.32 -0.72,0.66 L 35.08,20 h -2.36 z m 1.6,8.96 h 2.76 l -3.26,-6.3 -3.3,7.14 q 0.44,-0.38 1.34,-0.6 1.02,-0.24 2.46,-0.24 z M 52.92,7.26 v 4.96 q 0.62,-0.36 1.38,-0.48 0.56,-0.1 1.44,-0.1 h 2.84 q 1.18,0 1.84,-0.54 0.7,-0.58 0.7,-1.74 0,-1.1 -0.74,-1.64 -0.64,-0.46 -1.8,-0.46 z m 6.38,10.38 -1.82,-3.82 h -1.74 q -0.82,0 -1.44,0.1 -0.76,0.14 -1.38,0.48 V 20 H 50.74 V 5.08 h 7.84 q 1.38,0 2.44,0.52 1.06,0.52 1.64,1.48 0.62,1.02 0.62,2.4 0,1.68 -0.9,2.76 -0.9,1.08 -2.54,1.5 L 61,16.12 q 0.5,0.74 0.78,1.04 0.34,0.38 0.65,0.51 0.31,0.13 0.81,0.13 h 0.22 l 0.48,-0.02 V 20 q -1.16,0 -1.72,-0.08 -0.94,-0.16 -1.6,-0.62 -0.78,-0.56 -1.32,-1.66 z m 10.42,-3.62 v 3.8 h 9.2 V 20 H 67.54 V 5.08 h 10.5 v 2.2 h -8.32 v 4.52 q 0.62,-0.36 1.38,-0.48 0.56,-0.1 1.44,-0.1 h 3.26 v 2.22 h -3.26 q -0.82,0 -1.44,0.1 -0.76,0.14 -1.38,0.48 z M 85.4,7.28 v 10.54 h 3.38 q 1.4,0 2.52,-0.72 1.06,-0.7 1.66,-1.88 0.6,-1.18 0.6,-2.58 0,-1.46 -0.57,-2.68 Q 92.42,8.74 91.36,8.02 90.22,7.28 88.74,7.28 Z m -3.32,0 -0.96,-2.2 h 7.6 q 1.98,0 3.62,1.02 1.58,0.98 2.5,2.68 0.92,1.7 0.92,3.7 0,1.5 -0.59,2.97 -0.59,1.47 -1.63,2.57 -1,1.08 -2.14,1.54 Q 90.3,20 88.78,20 H 83.26 V 7.28 Z m 25.58,6.3 h -9.5 v -1.86 h 9.5 z m 8.42,-2.12 h 2.64 q 2.2,0 2.2,-2.12 0,-1.1 -0.55,-1.59 -0.55,-0.49 -1.65,-0.49 h -5.48 v 4.8 q 0.62,-0.36 1.4,-0.5 0.58,-0.1 1.44,-0.1 z M 113.24,20 h -2.18 V 5.08 h 7.66 q 1.32,0 2.3,0.51 0.98,0.51 1.52,1.47 0.54,0.96 0.54,2.27 0,1.31 -0.54,2.29 -0.54,0.98 -1.53,1.51 -0.99,0.53 -2.29,0.53 h -2.64 q -1.72,0 -2.84,0.6 z m 17.98,-8.36 q 1.34,-1.4 2.42,-3.12 1.08,-1.72 1.72,-3.44 h 2.5 q -1.02,2.38 -2.48,4.56 -1.32,1.98 -3.08,3.9 V 20 h -2.16 v -6.46 q -1.76,-1.92 -3.08,-3.9 -1.46,-2.18 -2.48,-4.56 h 2.5 q 0.64,1.72 1.72,3.44 1.08,1.72 2.42,3.12 z M 151.66,7.28 H 146.4 V 20 h -2.12 V 7.28 h -5.32 v -2.2 h 12.7 z m 4.96,6.12 V 20 h -2.16 V 5.08 h 2.16 v 6.12 q 0.8,-0.4 1.9,-0.4 0.4,0 1.94,0.18 2.16,0.26 2.92,0.26 1.16,0 2.02,-0.38 V 5.08 h 2.18 V 20 h -2.18 v -6.94 q -0.86,0.38 -2.02,0.38 -0.76,0 -2.92,-0.26 -1.54,-0.18 -1.94,-0.18 -1.1,0 -1.9,0.4 z m 28.26,-0.96 q 0,-1.6 -0.82,-2.9 -0.78,-1.26 -2.13,-1.98 -1.35,-0.72 -2.93,-0.72 -1.64,0 -2.99,0.74 -1.35,0.74 -2.11,2.02 -0.78,1.34 -0.78,2.98 0,1.56 0.84,2.88 0.8,1.24 2.15,1.97 1.35,0.73 2.92,0.73 1.57,0 2.92,-0.76 1.35,-0.76 2.13,-2.04 0.8,-1.34 0.8,-2.92 z m 2.16,0.12 q 0,2.16 -1.12,3.98 -1.08,1.74 -2.93,2.77 -1.85,1.03 -3.99,1.03 -2.22,0 -4.08,-1.08 -1.82,-1.04 -2.86,-2.86 -1.08,-1.86 -1.08,-4.08 0,-2.14 1.14,-3.94 1.08,-1.72 2.93,-2.73 1.85,-1.01 3.97,-1.01 2.18,0 4.04,1.06 1.82,1.04 2.88,2.82 1.1,1.86 1.1,4.04 z m 3.84,-5.38 -1.74,-2.1 h 2.82 l 9.58,11.4 V 5.08 h 2.2 V 20 h -2.16 L 193.02,9.74 V 20 h -2.14 z m 19.44,6.84 v 3.8 h 9.2 V 20 H 208.14 V 5.08 h 10.5 v 2.2 h -8.32 v 4.52 q 0.62,-0.36 1.38,-0.48 0.56,-0.1 1.44,-0.1 h 3.26 v 2.22 h -3.26 q -0.82,0 -1.44,0.1 -0.76,0.14 -1.38,0.48 z M 226,7.28 v 10.54 h 3.38 q 1.4,0 2.52,-0.72 1.06,-0.7 1.66,-1.88 0.6,-1.18 0.6,-2.58 0,-1.46 -0.57,-2.68 -0.57,-1.22 -1.63,-1.94 -1.14,-0.74 -2.62,-0.74 z m -3.32,0 -0.96,-2.2 h 7.6 q 1.98,0 3.62,1.02 1.58,0.98 2.5,2.68 0.92,1.7 0.92,3.7 0,1.5 -0.59,2.97 -0.59,1.47 -1.63,2.57 -1,1.08 -2.14,1.54 -1.1,0.44 -2.62,0.44 h -5.52 V 7.28 Z M 244.42,6.66 243.6,4.82 H 246 L 253.18,20 h -2.44 l -0.98,-2.18 h -4.54 q -1.28,0 -2.3,0.24 -0.9,0.22 -1.5,0.58 -0.54,0.32 -0.72,0.66 l -0.38,0.7 h -2.36 z m 1.6,8.96 h 2.76 l -3.26,-6.3 -3.3,7.14 q 0.44,-0.38 1.34,-0.6 1.02,-0.24 2.46,-0.24 z"
       id="path2335" />
  </g>
  <g
     id="SvgjsG1457"
     featurekey="sloganFeature-0"
     transform="matrix(1.4302456,0,0,1.4302456,65.157141,201.25852)"
     fill="url(#SvgjsLinearGradient1461)"
     style="fill:url(#linearGradient3199)">
    <path
       d="M 6.86,6.66 6.04,4.82 h 2.4 L 15.62,20 H 13.18 L 12.2,17.82 H 7.66 q -1.28,0 -2.3,0.24 -0.9,0.22 -1.5,0.58 -0.54,0.32 -0.72,0.66 L 2.76,20 H 0.4 Z m 1.6,8.96 h 2.76 L 7.96,9.32 4.66,16.46 Q 5.1,16.08 6,15.86 7.02,15.62 8.46,15.62 Z m 14.98,-4.16 h 2.64 q 2.2,0 2.2,-2.12 0,-1.1 -0.55,-1.59 Q 27.18,7.26 26.08,7.26 H 20.6 v 4.8 q 0.62,-0.36 1.4,-0.5 0.58,-0.1 1.44,-0.1 z M 20.6,20 H 18.42 V 5.08 h 7.66 q 1.32,0 2.3,0.51 0.98,0.51 1.52,1.47 0.54,0.96 0.54,2.27 0,1.31 -0.54,2.29 -0.54,0.98 -1.53,1.51 -0.99,0.53 -2.29,0.53 h -2.64 q -1.72,0 -2.84,0.6 z m 18.06,-8.54 h 2.64 q 2.2,0 2.2,-2.12 0,-1.1 -0.55,-1.59 Q 42.4,7.26 41.3,7.26 h -5.48 v 4.8 q 0.62,-0.36 1.4,-0.5 0.58,-0.1 1.44,-0.1 z M 35.82,20 H 33.64 V 5.08 h 7.66 q 1.32,0 2.3,0.51 0.98,0.51 1.52,1.47 0.54,0.96 0.54,2.27 0,1.31 -0.54,2.29 -0.54,0.98 -1.53,1.51 -0.99,0.53 -2.29,0.53 h -2.64 q -1.72,0 -2.84,0.6 z m 23.5,0 H 48.86 V 5.08 h 2.18 v 12.74 h 8.28 z m 4.74,0 H 61.92 V 5.08 h 2.14 z M 81.24,7 79.84,8.64 Q 79.02,7.8 77.88,7.32 76.74,6.84 75.48,6.84 q -1.64,0 -2.99,0.74 -1.35,0.74 -2.11,2.02 -0.78,1.34 -0.78,2.98 0,1.56 0.84,2.88 0.8,1.24 2.15,1.97 1.35,0.73 2.91,0.73 1.44,0 2.68,-0.62 1.24,-0.62 2.06,-1.72 l 1.34,1.82 q -1.14,1.28 -2.73,1.99 -1.59,0.71 -3.37,0.71 -2.22,0 -4.08,-1.08 -1.82,-1.04 -2.86,-2.86 -1.08,-1.86 -1.08,-4.08 0,-2.14 1.14,-3.94 1.08,-1.72 2.93,-2.73 1.85,-1.01 3.97,-1.01 1.66,0 3.16,0.64 1.46,0.6 2.58,1.72 z m 8.2,-0.34 -0.82,-1.84 h 2.4 L 98.2,20 h -2.44 l -0.98,-2.18 h -4.54 q -1.28,0 -2.3,0.24 -0.9,0.22 -1.5,0.58 -0.54,0.32 -0.72,0.66 L 85.34,20 h -2.36 z m 1.6,8.96 h 2.76 l -3.26,-6.3 -3.3,7.14 q 0.44,-0.38 1.34,-0.6 1.02,-0.24 2.46,-0.24 z M 112.1,7.28 h -5.26 V 20 h -2.12 V 7.28 H 99.4 v -2.2 h 12.7 z M 117.04,20 H 114.9 V 5.08 h 2.14 z m 17.3,-7.56 q 0,-1.6 -0.82,-2.9 -0.78,-1.26 -2.13,-1.98 -1.35,-0.72 -2.93,-0.72 -1.64,0 -2.99,0.74 -1.35,0.74 -2.11,2.02 -0.78,1.34 -0.78,2.98 0,1.56 0.84,2.88 0.8,1.24 2.15,1.97 1.35,0.73 2.92,0.73 1.57,0 2.92,-0.76 1.35,-0.76 2.13,-2.04 0.8,-1.34 0.8,-2.92 z m 2.16,0.12 q 0,2.16 -1.12,3.98 -1.08,1.74 -2.93,2.77 -1.85,1.03 -3.99,1.03 -2.22,0 -4.08,-1.08 -1.82,-1.04 -2.86,-2.86 -1.08,-1.86 -1.08,-4.08 0,-2.14 1.14,-3.94 1.08,-1.72 2.93,-2.73 1.85,-1.01 3.97,-1.01 2.18,0 4.04,1.06 1.82,1.04 2.88,2.82 1.1,1.86 1.1,4.04 z m 3.84,-5.38 -1.74,-2.1 h 2.82 L 151,16.48 V 5.08 h 2.2 V 20 h -2.16 L 142.48,9.74 V 20 h -2.14 z"
       id="path3137"
       style="fill:url(#linearGradient3238)" />
  </g>
</svg>
